<svg width="100vw" height="100vh" viewBox="0 0 1440 1024" fill="none" xmlns="http://www.w3.org/2000/svg">
<g clip-path="url(#clip0_1_2)">
<rect width="1440" height="1024" fill="white"/>
<rect y="344" width="1440" height="680" fill="#2A8429"/>
<rect x="5" y="348" width="1440" height="680" fill="#2A8429"/>
<rect width="1440" height="344" fill="#8E9BE0"/>
<a class= "object" name="rio" code="1">
    <path d="M474.5 343H992.5L1116.5 396.5L1081 450L1247.5 514L1367 469.5V531.5L1287 616L1337.5 720L1066 879.5L660 824L539.5 655L320 695.5L335 577V450L411 408V359H482.5L474.5 343Z" fill="#6BC0DB"/>
    <path d="M871.937 769.118C870.022 762.144 877.238 756.177 883.728 759.368L897.208 765.997C908.535 771.567 920.832 774.897 933.422 775.803C983.633 779.416 1033.9 769.572 1079.04 747.287L1089.17 742.287C1096.33 738.752 1102.57 733.6 1107.39 727.237L1118.38 712.754C1124.61 704.538 1136.06 702.399 1144.84 707.812C1149.64 710.771 1149.86 717.668 1145.26 720.926L1091.59 758.941L1074.39 770.186C1030.61 798.808 976.525 806.921 926.275 792.404C917.11 789.756 907.721 787.958 898.226 787.032L892.551 786.479C882.746 785.524 874.546 778.618 871.937 769.118Z" fill="#9FE4F4"/>
    <path d="M1200.42 649.952C1198.32 648.416 1199.02 645.115 1201.56 644.559L1201.91 644.483C1209.52 642.818 1216.49 638.981 1221.97 633.437L1224.72 630.655C1237.57 617.644 1246.7 601.418 1251.14 583.674C1251.4 582.651 1251.75 581.655 1252.19 580.699L1260.63 562.494C1262.95 557.473 1268.42 554.71 1273.85 555.816C1277.3 556.521 1278.77 560.647 1276.54 563.379L1257.25 586.987C1255.98 588.534 1255.21 590.423 1255.02 592.413C1252.85 615.47 1238.68 635.673 1217.74 645.56L1216.19 646.293L1210.13 650.22C1207.15 652.151 1203.29 652.044 1200.42 649.952Z" fill="#9FE4F4"/>
    <path d="M607.27 633.023C608.041 629.502 612.364 628.177 614.975 630.662L623.088 638.384C630.731 645.659 639.45 651.711 648.937 656.329C681.8 672.323 717.338 682.103 753.757 685.175L765.504 686.166C771.375 686.661 777.287 686.117 782.968 684.559L798.431 680.319C803.336 678.974 808.578 680.542 811.938 684.36C814.865 687.685 812.589 692.914 808.161 693.039L761.792 694.344L753.135 694.354C708.826 694.404 665.317 680.577 629.056 655.111L614.118 647.496C608.81 644.79 605.996 638.843 607.27 633.023Z" fill="#9FE4F4"/>
    <path d="M452.208 378.156C453.906 376.694 456.399 378.578 455.456 380.61L453.89 383.984C453.35 385.148 453.064 386.413 453.049 387.696L453.039 388.628C452.927 398.573 458.777 407.62 467.893 411.599C468.534 411.879 469.091 412.319 469.512 412.878L473.118 417.665C474.025 418.869 474.618 420.28 474.844 421.771C475.402 425.452 470.658 427.422 468.444 424.428L461.673 415.271C451.09 413.298 444.505 402.641 447.474 392.293L448.022 390.385C448.388 389.108 448.606 387.795 448.673 386.469L448.804 383.857C448.896 382.01 449.742 380.281 451.143 379.074L452.208 378.156Z" fill="#9FE4F4"/>
    <path d="M408.959 483.826C411.172 483.126 413.163 485.39 412.186 487.496L409.485 493.316C408.704 494.999 408.389 496.862 408.574 498.708C409.475 507.743 414.429 515.88 422.041 520.83L423.227 521.602C423.798 521.973 424.294 522.449 424.687 523.005L426.81 525.999C428.822 528.839 429.409 532.449 428.4 535.78C427.124 539.99 421.153 539.962 419.918 535.739L416.894 525.409L415.94 524.76C408.342 519.593 403.794 511 403.794 501.811C403.794 499.681 403.51 497.561 402.951 495.506L402.37 493.371C401.325 489.532 403.496 485.553 407.29 484.354L408.959 483.826Z" fill="#9FE4F4"/>
<path d="M322.5 451.5L333.5 445L351 434.5L369 423L398.5 412.5L411 408L335 450V519.5L332 500.5L330 495V482.5L326 478.5L324 473.5L327 470.5L328.5 466L321 463L314.5 451.5L298.5 445L290 442L281 434.5L272 429.5L259.5 428.5L252 426.5L244.5 425.5H234.5L224.5 426.5L221.5 430L219 443.5L204 448L182.5 436.5L177 426.5L189 420H201L214.5 424.5L230 423H247L261 426.5L273.5 427.5L290 439L303.5 446L322.5 451.5Z" fill="#D9D9D9"/>
</a>
<a class="object" name="aves" code="2">
    <path d="M602 228L614.602 230.129L625.826 237.484L640.988 230.129H653L640.988 231.871L625.826 240L613.224 231.871L602 228Z" fill="#483C3C"/>
    <path d="M560 213L566.672 214.065L572.614 217.742L580.641 214.065H587L580.641 214.935L572.614 219L565.942 214.935L560 213Z" fill="#483C3C"/>
    <path d="M421 281L432.12 282.774L442.023 288.903L455.402 282.774H466L455.402 284.226L442.023 291L430.903 284.226L421 281Z" fill="#483C3C"/>
    <path d="M404 255L412.649 256.419L420.351 261.323L430.757 256.419H439L430.757 257.581L420.351 263L411.703 257.581L404 255Z" fill="#483C3C"/>
    <path d="M627 215L634.413 216.242L641.015 220.532L649.934 216.242H657L649.934 217.258L641.015 222L633.602 217.258L627 215Z" fill="#483C3C"/>
</a>
<a class="object" name="montanhasRedondas" code="3">
    <path d="M70 344.5C95.3632 316.247 130.593 298.794 168.437 295.733L169.463 295.65C174.808 295.218 180.182 295.321 185.506 295.958L190.146 296.513C219.659 300.045 246.807 314.413 266.323 336.831L273 344.5H70Z" fill="#287A27"/>
    <path d="M70 344.5C95.3632 316.247 130.593 298.794 168.437 295.733L169.463 295.65C174.808 295.218 180.182 295.321 185.506 295.958L190.146 296.513C219.659 300.045 246.807 314.413 266.323 336.831L273 344.5H70Z" fill="#287A27"/>
    <path d="M32.4198 358.933C54.7393 328.295 89.0651 308.628 126.784 304.869C132.573 304.292 138.41 304.429 144.165 305.278L149.193 306.019C177.807 310.239 203.444 325.995 220.133 349.618L231 365H28L32.4198 358.933Z" fill="#287A27"/>
    <path d="M32.4198 358.933C54.7393 328.295 89.0651 308.628 126.784 304.869C132.573 304.292 138.41 304.429 144.165 305.278L149.193 306.019C177.807 310.239 203.444 325.995 220.133 349.618L231 365H28L32.4198 358.933Z" fill="#177016"/>
    <path d="M-36 397.556C-36 350.294 -6.71036 307.98 37.5239 291.338L42.5848 289.433C57.048 283.992 72.982 283.911 87.4996 289.206L98.337 293.158C130.072 304.732 152.703 333.039 157.007 366.543L157.917 373.625C158.625 379.133 160.875 384.328 164.409 388.612L175.5 402.056L-36 397.556Z" fill="#257D24"/>
</a>
<a class="object" name="montanhas" code="4">
    <path d="M1212.78 156.791L1255 156.791L1294.5 185L1332 345H1116L1212.78 156.791Z" fill="#247523"/>
    <path d="M1212.78 156.791L1255 156.791L1294.5 185L1300 208L1267 198.5L1243 219.5L1235.5 212L1219 206.5L1208.5 212L1189.5 201.5L1212.78 156.791Z" fill="#BBD9BB"/>
    <path d="M1420.5 249.5L1441.5 235V304L1428.5 272L1420.5 249.5Z" fill="#247523"/>
    <path d="M1329.6 159.81L1376.69 141L1397.36 188.986L1472 384H1214L1329.6 159.81Z" fill="#257B24"/>
    <path d="M1329.6 159.81L1376.69 141L1397.36 188.986L1381.5 180.5L1376.69 212L1361.5 215.5L1351 196V237L1337 227L1319 215.5L1304.5 237L1295 227L1329.6 159.81Z" fill="#BBD9BB"/>
</a>
<a class="object" name="pedra" code="5">
    <path d="M1012.94 577.077C1012.07 574.339 1014.44 571.662 1017.27 572.205L1024 573.5L1022.5 577.5L1035.5 580L1064 583.5L1097 584.655L1122 584.655L1124.22 583.785C1126.2 583.01 1127.5 581.102 1127.5 578.977C1127.5 578.023 1127.84 577.101 1128.46 576.375L1128.85 575.915C1130.42 574.065 1133.4 575.713 1132.66 578.027L1130.5 584.854C1129.88 586.79 1128.25 588.231 1126.25 588.6L1114.93 590.692C1094.18 594.526 1072.88 594.24 1052.24 589.848L1036.5 586.5L1021.68 584.432C1017.6 583.862 1014.2 581.003 1012.94 577.077Z" fill="#9FE4F4"/>
    <path d="M1025.6 564.256C1025.86 563.1 1026.38 562.016 1027.11 561.083L1052.76 528.364C1054.09 526.657 1056.38 526.007 1058.42 526.755L1107.27 544.709C1111.26 546.175 1114.5 549.171 1116.28 553.034L1127.08 576.49C1128.91 580.465 1126.01 585 1121.63 585H1099.16C1079.08 585 1059.03 583.499 1039.17 580.51L1023.56 578.16C1022.99 578.074 1022.61 577.518 1022.74 576.951L1025.6 564.256Z" fill="#7D8B91"/>
    <path d="M1077 554L1081 553V560H1076L1077 554Z" fill="#677276"/>
    <path d="M1080 553.5L1081 553V560H1076V559H1080V553.5Z" fill="#596569"/>
    <path d="M1079.5 563.5L1081.5 564L1084 563V570H1079L1079.5 563.5Z" fill="#677276"/>
    <path d="M1089.5 556L1092 555V562L1088 562.5L1086.5 560.5L1089.5 556Z" fill="#677276"/>
    <path d="M1091.5 564.5L1094.5 565L1096 571H1091L1091.5 564.5Z" fill="#677276"/>
    <path d="M1083 563.5L1084 563V570L1081.5 570.5L1079 570V569H1083V563.5Z" fill="#596569"/>
    <path d="M1091 555.5L1092 555V563L1090.5 562L1088 562.5L1087 561H1091V555.5Z" fill="#596569"/>
    <path d="M1094 567L1095 566.5L1096 571H1091V570H1093L1094 567Z" fill="#596569"/>
    <path d="M1018.29 461.6C1020.85 458.397 1025.91 459.103 1027.49 462.886C1027.83 463.681 1028.54 464.257 1029.38 464.419C1033.26 465.165 1034.09 470.374 1030.61 472.247L1023.71 475.959C1021.42 477.194 1018.6 476.924 1016.59 475.274L1016.18 474.943C1013.31 472.595 1012.87 468.374 1015.18 465.479L1018.29 461.6Z" fill="#A7DB37"/>
    <path d="M1023.16 452L1023.97 460.916L1026.41 455.242V460.106L1029.65 453.621V461.727L1033.7 452L1030.7 463.997C1030.1 466.402 1027.8 467.98 1025.34 467.672C1024.05 467.511 1023.02 466.521 1022.8 465.237L1022.55 463.737C1022.42 462.94 1022.38 462.13 1022.44 461.325L1023.16 452Z" fill="#F478CE"/>
    <path d="M1019.11 469.832L1023.97 470.643L1020.73 474.695H1019.11V469.832Z" fill="#88AC24"/>
    <path d="M1020.36 463.097L1021.1 466.428L1017.66 465.401L1017.24 464.361L1020.36 463.097Z" fill="#88AC24"/>
    <path d="M1027.78 467.896L1030.39 466.988L1029.88 469.851L1029.09 470.287L1027.78 467.896Z" fill="#88AC24"/>
    <path d="M1205.97 531.157C1200.08 525.914 1190.87 527.359 1186.87 534.153L1186.49 534.795C1185.81 535.96 1184.62 536.747 1183.28 536.931C1176.04 537.923 1174.89 547.914 1181.71 550.533L1198.84 557.104C1201.97 558.303 1205.51 557.996 1208.4 556.311C1216.03 551.863 1217.22 541.182 1210.63 535.308L1205.97 531.157Z" fill="#A7DB37"/>
    <path d="M1196.43 517L1194.59 531.403L1189.08 522.237V530.094L1181.73 519.619V532.712L1172.54 517L1180.44 539.517C1181.2 541.676 1183.33 543.045 1185.6 542.842L1194.27 542.07C1195.56 541.955 1196.63 541.026 1196.93 539.765L1197.88 535.68C1198.14 534.582 1198.21 533.449 1198.09 532.328L1196.43 517Z" fill="#F478CE"/>
    <path d="M1205.62 545.806L1194.59 547.115L1201.95 553.662H1205.62V545.806Z" fill="#88AC24"/>
    <path d="M1202.79 534.926L1201.1 540.306L1208.91 538.648L1209.87 536.968L1202.79 534.926Z" fill="#88AC24"/>
    <path d="M1185.97 542.677L1180.05 541.212L1181.2 545.837L1183 546.54L1185.97 542.677Z" fill="#88AC24"/>
</a>
<a class="object" name="cais" code="6">
    <rect x="1061" y="384" width="2" height="7" fill="#405E38"/>
    <rect x="1061" y="384" width="2" height="7" fill="#405E38"/>
    <rect x="1061" y="384" width="2" height="7" fill="#405E38"/>
    <path d="M1062.5 384H1063V391H1062L1062.5 389.5V387.5V384Z" fill="#405E38"/>
    <path d="M1062.5 384H1063V391H1062L1062.5 389.5V387.5V384Z" fill="#405E38"/>
    <path d="M1062.5 384H1063V391H1062L1062.5 389.5V387.5V384Z" fill="#33512B"/>
    <rect x="1049" y="382" width="2" height="6" fill="#405E38"/>
    <rect x="1049" y="382" width="2" height="6" fill="#405E38"/>
    <rect x="1049" y="382" width="2" height="6" fill="#405E38"/>
    <path d="M1050.5 382H1051V388H1050L1050.5 386.714V385V382Z" fill="#405E38"/>
    <path d="M1050.5 382H1051V388H1050L1050.5 386.714V385V382Z" fill="#405E38"/>
    <path d="M1050.5 382H1051V388H1050L1050.5 386.714V385V382Z" fill="#33512B"/>
    <rect x="1072" y="380" width="2" height="7" fill="#405E38"/>
    <rect x="1072" y="380" width="2" height="7" fill="#405E38"/>
    <rect x="1072" y="380" width="2" height="7" fill="#405E38"/>
    <rect x="1082" y="376" width="2" height="7" fill="#405E38"/>
    <rect x="1082" y="376" width="2" height="7" fill="#405E38"/>
    <rect x="1082" y="376" width="2" height="7" fill="#405E38"/>
    <rect x="1059" y="372" width="1" height="4" fill="#405E38"/>
    <rect x="1059" y="372" width="1" height="4" fill="#405E38"/>
    <rect x="1059" y="372" width="1" height="4" fill="#405E38"/>
    <rect x="1063" y="373" width="1" height="4" fill="#405E38"/>
    <rect x="1063" y="373" width="1" height="4" fill="#405E38"/>
    <rect x="1063" y="373" width="1" height="4" fill="#405E38"/>
    <rect x="1067" y="374" width="1" height="4" fill="#405E38"/>
    <rect x="1067" y="374" width="1" height="4" fill="#405E38"/>
    <rect x="1067" y="374" width="1" height="4" fill="#405E38"/>
    <path d="M1073.5 380H1074V387H1073L1073.5 385.5V383.5V380Z" fill="#405E38"/>
    <path d="M1073.5 380H1074V387H1073L1073.5 385.5V383.5V380Z" fill="#405E38"/>
    <path d="M1073.5 380H1074V387H1073L1073.5 385.5V383.5V380Z" fill="#33512B"/>
    <path d="M1083.5 376H1084V383H1083L1083.5 381.5V379.5V376Z" fill="#405E38"/>
    <path d="M1083.5 376H1084V383H1083L1083.5 381.5V379.5V376Z" fill="#405E38"/>
    <path d="M1083.5 376H1084V383H1083L1083.5 381.5V379.5V376Z" fill="#33512B"/>
    <path d="M1059.5 372H1060V376H1059L1059.5 375.143V374V372Z" fill="#405E38"/>
    <path d="M1059.5 372H1060V376H1059L1059.5 375.143V374V372Z" fill="#405E38"/>
    <path d="M1059.5 372H1060V376H1059L1059.5 375.143V374V372Z" fill="#33512B"/>
    <path d="M1063.5 373H1064V377H1063L1063.5 376.143V375V373Z" fill="#405E38"/>
    <path d="M1063.5 373H1064V377H1063L1063.5 376.143V375V373Z" fill="#405E38"/>
    <path d="M1063.5 373H1064V377H1063L1063.5 376.143V375V373Z" fill="#33512B"/>
    <path d="M1069 375.927L1068.5 376.5L1058 372.427L1058 371.927L1069 375.927Z" fill="#4A745B"/>
    <path d="M1089 370L1101 374L1058 386L1040 383.5L1069 376L1058 372L1075.5 370L1082 371.5L1089 370Z" fill="#43663A"/>
    <path d="M1101 374L1101 374.983L1058 386.983L1040 384.483L1040 383.5L1058 386L1101 374Z" fill="#4A745B"/>
    <rect x="1067" y="372" width="2" height="2" fill="#125610"/>
    <path d="M1068 371H1069H1070V373L1069 374V372H1067L1068 371Z" fill="#114710"/>
    <path d="M1070 371L1069.5 371.5L1069 372" stroke="#0E4F0D" stroke-width="0.1"/>
    <rect x="1068" y="373" width="2" height="2" fill="#0E4F0D"/>
    <path d="M1069 372H1070H1071V374L1070 375V373H1068L1069 372Z" fill="#114710"/>
    <path d="M1071 372L1070.5 372.5L1070 373" stroke="#0E4F0D" stroke-width="0.1"/>
</a>
<a class="object" name="nuvens" code="7">
    <path d="M97 91.5C87.0289 70.6303 102.243 46.5 125.372 46.5H132C149.382 17.7707 190.146 15.3374 210.823 41.7947L214.5 46.5L222.376 42.2143C238.463 33.4611 258.059 34.2591 273.381 44.2913C283.85 51.1457 297.316 51.4104 308.046 44.9725L319.259 38.2449C334.591 29.0455 354.515 35.2156 361.965 51.47L366.364 61.0664C368.51 65.7488 373.528 68.412 378.608 67.5653L381.629 67.0618C409.355 62.4408 429.989 92.1195 416 116.5C437.165 133.644 430.409 167.498 404.284 175.204L396.5 177.5C383.852 191.052 364.157 195.401 346.977 188.437L306.586 172.062C291.659 166.011 274.804 166.987 260.676 174.721C231.59 190.644 196.725 192.022 166.473 178.445L151 171.5L119.075 175.047C105.074 176.603 91.0995 171.916 80.8687 162.233C60.9063 143.34 64.6131 110.585 88.2927 96.6311L97 91.5Z" fill="#CBD9EE"/>
    <path d="M175.901 65.4977C168.435 49.8086 179.875 31.6948 197.25 31.6948H202.089C215.074 10.1505 245.63 8.32904 261.081 28.1783L263.819 31.6948L269.707 28.4785C281.74 21.9052 296.418 22.504 307.876 30.0357C315.704 35.1815 325.79 35.38 333.815 30.5463L340.75 26.3692C352.984 18.9998 368.908 23.9289 374.839 36.9211L377.449 42.6365C379.054 46.1524 382.819 48.1529 386.631 47.5151L388.723 47.1651C409.544 43.6813 425.063 65.9488 414.588 84.277C430.456 97.1801 425.374 122.584 405.765 128.391L399.998 130.099C390.54 140.272 375.776 143.537 362.91 138.301L332.727 126.016C321.559 121.471 308.936 122.204 298.369 128.011C276.615 139.967 250.506 141.002 227.874 130.804L216.306 125.592L192.53 128.244C181.987 129.42 171.462 125.881 163.771 118.574C148.842 104.388 151.621 79.862 169.345 69.3763L175.901 65.4977Z" fill="#D9E2EF"/>
    <path d="M556.633 66.3052C553.144 59.068 558.417 50.6714 566.451 50.6714H568.904C575.021 40.6515 589.253 39.7992 596.523 49.0174L597.827 50.6714L600.594 49.1793C606.238 46.1363 613.092 46.4142 618.47 49.9041C622.145 52.2887 626.855 52.3809 630.621 50.1419L633.963 48.1546C639.668 44.7628 647.054 47.0523 649.84 53.076L651.069 55.7324C651.822 57.3606 653.569 58.2858 655.339 57.9935L656.58 57.7886C666.219 56.1966 673.366 66.5358 668.471 74.9906C675.858 80.92 673.517 92.7098 664.425 95.3674L661.634 96.1831C657.193 100.898 650.318 102.412 644.308 99.997L630.105 94.2912C624.871 92.1887 618.973 92.5284 614.016 95.2178C603.809 100.755 591.609 101.234 580.999 96.5156L575.565 94.0986L564.252 95.3442C559.417 95.8766 554.59 94.2674 551.042 90.9396C544.036 84.3689 545.33 72.9056 553.625 68.0619L556.633 66.3052Z" fill="#CBD9EE"/>
    <path d="M584.626 57.4742C582.018 51.98 586.025 45.6432 592.107 45.6432H593.767C598.294 38.1114 608.973 37.4755 614.362 44.4167L615.314 45.6432L617.368 44.5182C621.568 42.218 626.695 42.4274 630.692 45.0625C633.424 46.8628 636.947 46.9322 639.747 45.2409L642.153 43.7877C646.428 41.2058 651.998 42.9294 654.067 47.4744L654.977 49.4727C655.537 50.7029 656.854 51.4031 658.187 51.1794L658.877 51.0638C666.163 49.8414 671.6 57.6287 667.941 64.0469C673.487 68.569 671.707 77.4541 664.847 79.4909L662.848 80.0845C659.548 83.6437 654.388 84.7859 649.895 82.952L639.368 78.6562C635.47 77.0654 631.062 77.3218 627.374 79.3539C619.783 83.5373 610.664 83.8992 602.765 80.3304L598.729 78.507L590.457 79.4323C586.761 79.8457 583.071 78.6027 580.377 76.037C575.168 71.074 576.139 62.5085 582.327 58.8376L584.626 57.4742Z" fill="#D9E2EF"/>
    <path d="M1439.13 29.23C1443.01 21.2193 1437.18 11.9061 1428.27 11.9061H1425.46C1418.63 0.777534 1402.81 -0.171357 1394.7 10.0606L1393.23 11.9061L1390.15 10.2507C1383.86 6.87751 1376.23 7.18588 1370.23 11.0559C1366.14 13.7004 1360.9 13.8027 1356.7 11.3202L1352.93 9.09277C1346.59 5.3419 1338.4 7.88337 1335.29 14.565L1333.92 17.5147C1333.08 19.3198 1331.14 20.3449 1329.17 20.0222L1327.67 19.7756C1316.99 18.0203 1309.08 29.4959 1314.53 38.8545C1306.32 45.4073 1308.91 58.4903 1319 61.4224L1322.15 62.338C1327.1 67.5671 1334.74 69.2457 1341.43 66.5736L1357.28 60.2399C1363.11 57.91 1369.67 58.2867 1375.2 61.2684C1386.57 67.4074 1400.15 67.9393 1411.97 62.7093L1418.04 60.0282L1430.72 61.4171C1436.06 62.0018 1441.39 60.2311 1445.31 56.5674C1453.12 49.2819 1451.69 36.5242 1442.45 31.1599L1439.13 29.23Z" fill="#CBD9EE"/>
    <path d="M1408.66 19.4178C1411.57 13.346 1407.14 6.31925 1400.41 6.31925H1398.45C1393.37 -2.0517 1381.49 -2.76149 1375.45 4.94546L1374.38 6.31925L1372.08 5.07108C1367.39 2.52279 1361.67 2.75522 1357.2 5.67636C1354.14 7.67225 1350.22 7.74933 1347.09 5.87489L1344.34 4.23384C1339.58 1.38488 1333.41 3.29888 1331.09 8.33936L1330.07 10.5593C1329.44 11.9226 1327.98 12.6978 1326.5 12.4517L1325.58 12.2987C1317.51 10.9565 1311.51 19.6015 1315.59 26.6948C1309.42 31.6793 1311.39 41.5397 1318.99 43.7785L1321.28 44.4507C1324.97 48.3969 1330.71 49.6634 1335.72 47.6373L1347.51 42.8672C1351.87 41.1058 1356.78 41.3901 1360.91 43.6419C1369.39 48.2778 1379.56 48.6791 1388.39 44.7266L1392.91 42.7042L1402.25 43.7396C1406.32 44.1907 1410.38 42.8305 1413.35 40.0199C1419.18 34.519 1418.1 24.9666 1411.19 20.9058L1408.66 19.4178Z" fill="#D9E2EF"/>
    <path d="M1206.75 92.5681C1208.92 88.073 1205.65 82.8498 1200.65 82.8498H1199.09C1195.26 76.6104 1186.4 76.0787 1181.85 81.8162L1181.03 82.8498L1179.31 81.9214C1175.78 80.0293 1171.51 80.2022 1168.15 82.3728C1165.85 83.856 1162.92 83.9134 1160.57 82.521L1158.46 81.2749C1154.91 79.1697 1150.31 80.5948 1148.57 84.3421L1147.8 85.996C1147.33 87.0085 1146.25 87.5836 1145.14 87.4024L1144.32 87.2667C1138.32 86.2808 1133.89 92.7158 1136.94 97.9671C1132.34 101.646 1133.79 108.982 1139.45 110.629L1141.21 111.141C1143.98 114.074 1148.27 115.015 1152.01 113.516L1160.89 109.964C1164.16 108.657 1167.83 108.868 1170.93 110.541C1177.3 113.984 1184.91 114.283 1191.53 111.349L1194.93 109.845L1202.02 110.623C1205.02 110.952 1208.01 109.957 1210.22 107.898C1214.59 103.812 1213.79 96.6626 1208.61 93.653L1206.75 92.5681Z" fill="#CBD9EE"/>
    <path d="M1189.78 87.1714C1191.42 83.7437 1188.92 79.777 1185.12 79.777H1184.01C1181.15 75.0515 1174.44 74.6508 1171.03 79.0015L1170.42 79.777L1169.13 79.0724C1166.48 77.6338 1163.25 77.765 1160.73 79.4141C1159 80.5408 1156.78 80.5843 1155.02 79.5261L1153.47 78.5997C1150.78 76.9915 1147.29 78.0719 1145.99 80.9174L1145.41 82.1706C1145.06 82.9402 1144.23 83.3778 1143.4 83.2389L1142.88 83.1525C1138.32 82.3948 1134.93 87.275 1137.24 91.2793C1133.75 94.0932 1134.86 99.6595 1139.16 100.923L1140.45 101.303C1142.53 103.53 1145.77 104.245 1148.6 103.102L1155.26 100.409C1157.72 99.4145 1160.49 99.575 1162.82 100.846C1167.61 103.463 1173.35 103.69 1178.33 101.459L1180.88 100.317L1186.16 100.901C1188.45 101.156 1190.75 100.388 1192.43 98.8016C1195.71 95.6962 1195.1 90.3037 1191.21 88.0113L1189.78 87.1714Z" fill="#D9E2EF"/>
    <path d="M1008.96 199.718C1010.39 196.79 1008.26 193.38 1005 193.38H1003.94C1001.42 189.301 995.624 188.953 992.638 192.701L992.098 193.38L990.962 192.774C988.65 191.54 985.851 191.653 983.646 193.069C982.14 194.037 980.216 194.075 978.673 193.166L977.276 192.344C974.949 190.974 971.948 191.905 970.805 194.351L970.301 195.432C969.992 196.093 969.282 196.468 968.562 196.35L967.975 196.254C964.064 195.615 961.176 199.819 963.176 203.239C960.167 205.632 961.113 210.424 964.806 211.493L965.975 211.831C967.796 213.745 970.598 214.36 973.053 213.383L978.886 211.063C981.029 210.21 983.439 210.348 985.47 211.44C989.653 213.687 994.637 213.881 998.983 211.968L1001.21 210.986L1005.9 211.497C1007.84 211.709 1009.79 211.065 1011.22 209.732C1014.09 207.065 1013.57 202.381 1010.17 200.419L1008.96 199.718Z" fill="#CBD9EE"/>
    <path d="M997.939 196.284C999.018 194.032 997.376 191.425 994.878 191.425H994.151C992.267 188.32 987.86 188.056 985.62 190.915L985.221 191.425L984.368 190.962C982.627 190.017 980.507 190.103 978.848 191.186C977.715 191.927 976.258 191.955 975.096 191.26L974.079 190.651C972.314 189.594 970.022 190.304 969.162 192.174L968.784 192.998C968.552 193.504 968.01 193.791 967.461 193.7L967.119 193.643C964.125 193.145 961.898 196.352 963.412 198.984C961.124 200.833 961.853 204.491 964.675 205.321L965.522 205.57C966.892 207.034 969.021 207.504 970.88 206.753L975.255 204.983C976.87 204.33 978.694 204.435 980.223 205.27C983.372 206.99 987.144 207.139 990.419 205.673L992.094 204.923L995.559 205.307C997.069 205.474 998.575 204.969 999.68 203.927C1001.84 201.886 1001.44 198.342 998.878 196.836L997.939 196.284Z" fill="#D9E2EF"/>
</a>
<a class="object" name="plantinha" code="8">
    <path d="M99 693.5L198 596.5L121 693.5L108 741L78.5 805L46 902L52.5 933.5L22 967.5L31 918L52.5 822L99 725V693.5Z" fill="#41BC2C"/>
    <path d="M167.5 653L131.5 815.5L67 953L38 1027H0.5V991L55 931.5L82 883L117 815.5L167.5 653Z" fill="#197709"/>
    <rect x="139.133" y="697" width="28.7442" height="79.6834" rx="14" transform="rotate(12.416 139.133 697)" fill="#1D720F"/>
    <path d="M95.5 891L245.5 808.5L334.5 959.5L312 928L276 891L228.5 823.75L245.5 808.5L211.5 839L156.5 873L76 937L95.5 891Z" fill="#41BC2C"/>
</a>
<a class="object" name="casinha" code="9">
    <rect x="186" y="425" width="20" height="9" fill="#511616"/>
    <rect x="186" y="425" width="20" height="9" fill="#753737"/>
    <path d="M206 425L215 421.5V429L206 434V425Z" fill="#501E1E"/>
    <path d="M198.5 419L208 418.5L215 421.5L206 425H186L198.5 419Z" fill="#794C4C"/>
    <path d="M198.5 419L206 425H186L198.5 419Z" fill="#A07171"/>
</a>
<a class="object" name="fazendinha" code="10">
    <path d="M66 495L61.5 484L68.5 476.5L72.5 468L88 472.5L101 468L117.5 470.5L125.5 473L147 458L163 448.5L167.5 445L177.5 441L186 438.5L178.5 442.5L170.5 445L161.5 450.5L144.5 461.5L126.5 474.5L130 478L134.5 486L131 498.5L133.5 511.5L124.5 517.5L110 519H98.5H88L75 516L60 508.5L66 495Z" fill="#3B8D3A"/>
    <path d="M85.0777 483.638C85.1703 482.815 85.9127 482.223 86.7359 482.315L88.7234 482.539C89.5466 482.631 90.139 483.374 90.0465 484.197C89.9539 485.02 89.2115 485.612 88.3883 485.52L85.9039 485.241C85.3551 485.179 84.9602 484.684 85.0219 484.135L85.0777 483.638Z" fill="#D9D9D9"/>
    <path d="M87.8914 485.464L88.3883 485.52L87.7797 486.458L87.8914 485.464Z" fill="#D9D9D9"/>
    <path d="M85.9039 485.241L86.4008 485.296L85.7922 486.234L85.9039 485.241Z" fill="#D9D9D9"/>
    <rect x="89.2203" y="482.594" width="2" height="2" rx="1" transform="rotate(6.41353 89.2203 482.594)" fill="#D9D9D9"/>
    <path d="M90.1424 483.343L91.096 483.812L91.6786 484.19C91.7671 484.247 91.7178 484.385 91.613 484.373L91.0402 484.308L90.0464 484.197L90.1424 483.343Z" fill="#D9D9D9"/>
    <path d="M108.035 478.583C108.166 477.765 107.608 476.996 106.79 476.866L104.815 476.551C103.997 476.421 103.228 476.978 103.097 477.796C102.967 478.614 103.525 479.383 104.343 479.514L106.811 479.907C107.357 479.994 107.869 479.622 107.956 479.077L108.035 478.583Z" fill="#D9D9D9"/>
    <path d="M104.836 479.592L104.343 479.514L104.679 480.58L104.836 479.592Z" fill="#D9D9D9"/>
    <path d="M106.811 479.907L106.318 479.828L106.654 480.895L106.811 479.907Z" fill="#D9D9D9"/>
    <rect width="2" height="2" rx="1" transform="matrix(-0.987531 -0.157428 -0.157428 0.987531 104.321 476.472)" fill="#D9D9D9"/>
    <path d="M103.233 476.948L102.189 477.145L101.526 477.354C101.426 477.386 101.437 477.531 101.541 477.548L102.11 477.639L103.097 477.796L103.233 476.948Z" fill="#D9D9D9"/>
    <path d="M97.5029 495.286C97.2252 494.506 97.6327 493.648 98.4132 493.37L100.297 492.7C101.078 492.422 101.936 492.829 102.214 493.61C102.491 494.39 102.084 495.248 101.303 495.526L98.948 496.364C98.4276 496.549 97.8557 496.278 97.6706 495.757L97.5029 495.286Z" fill="#D9D9D9"/>
    <path d="M100.832 495.694L101.303 495.526L101.167 496.636L100.832 495.694Z" fill="#D9D9D9"/>
    <path d="M98.9479 496.364L99.419 496.196L99.2832 497.306L98.9479 496.364Z" fill="#D9D9D9"/>
    <rect x="100.768" y="492.532" width="2" height="2" rx="1" transform="rotate(-19.5894 100.768 492.532)" fill="#D9D9D9"/>
    <path d="M101.926 492.801L102.988 492.803L103.677 492.888C103.782 492.901 103.798 493.046 103.699 493.081L103.156 493.275L102.214 493.61L101.926 492.801Z" fill="#D9D9D9"/>
    <path d="M80 496.026C80 495.198 79.3284 494.526 78.5 494.526H76.5C75.6716 494.526 75 495.198 75 496.026C75 496.854 75.6716 497.526 76.5 497.526H79C79.5523 497.526 80 497.078 80 496.526V496.026Z" fill="#D9D9D9"/>
    <path d="M77 497.526H76.5L77 498.526V497.526Z" fill="#D9D9D9"/>
    <path d="M79 497.526H78.5L79 498.526V497.526Z" fill="#D9D9D9"/>
    <rect width="2" height="2" rx="1" transform="matrix(-1 0 0 1 76 494.526)" fill="#D9D9D9"/>
    <path d="M75 495.167L74 495.526L73.3789 495.837C73.2845 495.884 73.3181 496.026 73.4236 496.026L74 496.026L75 496.026L75 495.167Z" fill="#D9D9D9"/>
    <path d="M89 508.026C89 507.198 89.6716 506.526 90.5 506.526H92.5C93.3284 506.526 94 507.198 94 508.026C94 508.854 93.3284 509.526 92.5 509.526H90C89.4477 509.526 89 509.078 89 508.526V508.026Z" fill="#D9D9D9"/>
    <path d="M92 509.526H92.5L92 510.526V509.526Z" fill="#D9D9D9"/>
    <path d="M90 509.526H90.5L90 510.526V509.526Z" fill="#D9D9D9"/>
    <rect x="93" y="506.526" width="2" height="2" rx="1" fill="#D9D9D9"/>
    <path d="M94 507.167L95 507.526L95.6211 507.837C95.7155 507.884 95.6819 508.026 95.5764 508.026L95 508.026L94 508.026L94 507.167Z" fill="#D9D9D9"/>
    <path d="M117 487.026C117 486.198 117.672 485.526 118.5 485.526H120.5C121.328 485.526 122 486.198 122 487.026C122 487.854 121.328 488.526 120.5 488.526H118C117.448 488.526 117 488.078 117 487.526V487.026Z" fill="#D9D9D9"/>
    <path d="M120 488.526H120.5L120 489.526V488.526Z" fill="#D9D9D9"/>
    <path d="M118 488.526H118.5L118 489.526V488.526Z" fill="#D9D9D9"/>
    <rect x="121" y="485.526" width="2" height="2" rx="1" fill="#D9D9D9"/>
    <path d="M122 486.167L123 486.526L123.621 486.837C123.715 486.884 123.682 487.026 123.576 487.026L123 487.026L122 487.026L122 486.167Z" fill="#D9D9D9"/>
    <path d="M114 509.026C114 508.198 114.672 507.526 115.5 507.526H117.5C118.328 507.526 119 508.198 119 509.026C119 509.854 118.328 510.526 117.5 510.526H115C114.448 510.526 114 510.078 114 509.526V509.026Z" fill="#D9D9D9"/>
    <path d="M117 510.526H117.5L117 511.526V510.526Z" fill="#D9D9D9"/>
    <path d="M115 510.526H115.5L115 511.526V510.526Z" fill="#D9D9D9"/>
    <rect x="118" y="507.526" width="2" height="2" rx="1" fill="#D9D9D9"/>
    <path d="M119 508.167L120 508.526L120.621 508.837C120.715 508.884 120.682 509.026 120.576 509.026L120 509.026L119 509.026L119 508.167Z" fill="#D9D9D9"/>
</a>
</g>
<defs>
<clipPath id="clip0_1_2">
<rect width="1440" height="1024" fill="white"/>
</clipPath>
</defs>
</svg>
